<?xml version="1.0" encoding="UTF-8"?>
<svg xmlns="http://www.w3.org/2000/svg" viewBox="0 0 1320 800" role="img" aria-label="Kickstand AWS architecture diagram">
  <defs>
    <style>
      @import url("https://fonts.googleapis.com/css2?family=Plus+Jakarta+Sans:wght@400;500;600;700&amp;family=JetBrains+Mono:wght@400;500&amp;display=swap");
      text { font-family: 'Plus Jakarta Sans', system-ui, -apple-system, sans-serif; }
      .mono { font-family: 'JetBrains Mono', ui-monospace, SFMono-Regular, Menlo, monospace; }
    </style>
    <marker id="arrow" markerWidth="8" markerHeight="6" refX="7" refY="3" orient="auto">
      <polygon points="0 0, 8 3, 0 6" fill="#1A1A1A"/>
    </marker>
    <marker id="arrow-accent" markerWidth="8" markerHeight="6" refX="7" refY="3" orient="auto">
      <polygon points="0 0, 8 3, 0 6" fill="#C9A442"/>
    </marker>

    <symbol id="i-mobile" viewBox="0 0 24 24">
      <rect x="6" y="2" width="12" height="20" rx="2.5" fill="none" stroke="currentColor" stroke-width="1.5"/>
      <line x1="6" y1="6" x2="18" y2="6" stroke="currentColor" stroke-width="1.2"/>
      <circle cx="12" cy="19" r="0.8" fill="currentColor"/>
    </symbol>
    <symbol id="i-cicd" viewBox="0 0 24 24">
      <circle cx="12" cy="12" r="9" fill="none" stroke="currentColor" stroke-width="1.5"/>
      <polygon points="10,8 10,16 17,12" fill="currentColor"/>
    </symbol>
    <symbol id="i-registry" viewBox="0 0 24 24">
      <rect x="3" y="6" width="18" height="4" rx="0.5" fill="none" stroke="currentColor" stroke-width="1.5"/>
      <rect x="3" y="14" width="18" height="4" rx="0.5" fill="none" stroke="currentColor" stroke-width="1.5"/>
      <circle cx="6" cy="8" r="0.6" fill="currentColor"/>
      <circle cx="6" cy="16" r="0.6" fill="currentColor"/>
    </symbol>
    <symbol id="i-secrets" viewBox="0 0 24 24">
      <rect x="5" y="11" width="14" height="10" rx="1.5" fill="none" stroke="currentColor" stroke-width="1.5"/>
      <path d="M 8 11 V 8 a 4 4 0 0 1 8 0 V 11" fill="none" stroke="currentColor" stroke-width="1.5"/>
      <circle cx="12" cy="16" r="1.2" fill="currentColor"/>
    </symbol>
    <symbol id="i-logs" viewBox="0 0 24 24">
      <line x1="4" y1="6" x2="20" y2="6" stroke="currentColor" stroke-width="1.5"/>
      <line x1="4" y1="10" x2="14" y2="10" stroke="currentColor" stroke-width="1.5"/>
      <line x1="4" y1="14" x2="20" y2="14" stroke="currentColor" stroke-width="1.5"/>
      <line x1="4" y1="18" x2="11" y2="18" stroke="currentColor" stroke-width="1.5"/>
    </symbol>
    <symbol id="i-server" viewBox="0 0 24 24">
      <rect x="3" y="4" width="18" height="6" rx="1" fill="none" stroke="currentColor" stroke-width="1.5"/>
      <rect x="3" y="14" width="18" height="6" rx="1" fill="none" stroke="currentColor" stroke-width="1.5"/>
      <circle cx="7" cy="7" r="0.8" fill="currentColor"/>
      <circle cx="7" cy="17" r="0.8" fill="currentColor"/>
      <line x1="11" y1="7" x2="18" y2="7" stroke="currentColor" stroke-width="1.2"/>
      <line x1="11" y1="17" x2="18" y2="17" stroke="currentColor" stroke-width="1.2"/>
    </symbol>
    <symbol id="i-database" viewBox="0 0 24 24">
      <ellipse cx="12" cy="6" rx="8" ry="3" fill="none" stroke="currentColor" stroke-width="1.5"/>
      <path d="M 4 6 v 6 a 8 3 0 0 0 16 0 V 6" fill="none" stroke="currentColor" stroke-width="1.5"/>
      <path d="M 4 12 v 6 a 8 3 0 0 0 16 0 V 12" fill="none" stroke="currentColor" stroke-width="1.5"/>
    </symbol>
    <symbol id="i-globe" viewBox="0 0 24 24">
      <circle cx="12" cy="12" r="9" fill="none" stroke="currentColor" stroke-width="1.5"/>
      <ellipse cx="12" cy="12" rx="4" ry="9" fill="none" stroke="currentColor" stroke-width="1.2"/>
      <line x1="3" y1="12" x2="21" y2="12" stroke="currentColor" stroke-width="1.2"/>
    </symbol>
    <symbol id="i-cloud" viewBox="0 0 24 24">
      <path d="M 6 17 a 4 4 0 0 1 0.5 -7.9 a 6 6 0 0 1 11.6 1.4 A 4 4 0 0 1 18 17 Z"
            fill="none" stroke="currentColor" stroke-width="1.5"/>
    </symbol>
    <symbol id="i-region" viewBox="0 0 24 24">
      <rect x="3" y="3" width="18" height="18" rx="1" fill="none" stroke="currentColor" stroke-width="1.5" stroke-dasharray="2,1.6"/>
      <circle cx="12" cy="12" r="2" fill="currentColor"/>
    </symbol>
    <symbol id="i-vpc" viewBox="0 0 24 24">
      <polygon points="12,3 21,8 21,16 12,21 3,16 3,8" fill="none" stroke="currentColor" stroke-width="1.5"/>
    </symbol>
    <symbol id="i-az" viewBox="0 0 24 24">
      <circle cx="12" cy="12" r="9" fill="none" stroke="currentColor" stroke-width="1.5" stroke-dasharray="2,1.6"/>
      <path d="M 8 14 L 12 6 L 16 14 Z" fill="none" stroke="currentColor" stroke-width="1.2"/>
    </symbol>
    <symbol id="i-subnet" viewBox="0 0 24 24">
      <rect x="4" y="6" width="16" height="12" rx="1" fill="none" stroke="currentColor" stroke-width="1.5"/>
      <line x1="4" y1="11" x2="20" y2="11" stroke="currentColor" stroke-width="1"/>
    </symbol>
  </defs>

  <rect width="100%" height="100%" fill="#F4F2EC"/>

  <rect x="280" y="80" width="760" height="640" rx="10" fill="rgba(26,26,26,0.015)" stroke="rgba(26,26,26,0.30)" stroke-width="1"/>
  <use href="#i-cloud" x="296" y="92" width="20" height="20" color="#7A756C"/>
  <text x="322" y="107" fill="#1A1A1A" font-size="13" font-weight="600">AWS Cloud</text>

  <rect x="304" y="128" width="712" height="584" rx="8" fill="none" stroke="rgba(26,26,26,0.40)" stroke-width="1" stroke-dasharray="6,4"/>
  <use href="#i-region" x="320" y="140" width="18" height="18" color="#7A756C"/>
  <text x="344" y="154" fill="#1A1A1A" font-size="12" font-weight="600">Region</text>
  <text x="394" y="154" class="mono" fill="#7A756C" font-size="11">ap-southeast-1</text>

  <rect x="332" y="180" width="156" height="108" rx="6" fill="#F4F2EC" stroke="rgba(26,26,26,0.16)" stroke-width="1"/>
  <rect x="394" y="196" width="32" height="32" rx="4" fill="#EBE8DF"/>
  <use href="#i-registry" x="398" y="200" width="24" height="24" color="#1A1A1A"/>
  <text x="410" y="252" fill="#1A1A1A" font-size="12" font-weight="600" text-anchor="middle">Amazon ECR</text>
  <text x="410" y="270" class="mono" fill="#7A756C" font-size="10" text-anchor="middle">kickstand-api</text>

  <rect x="510" y="180" width="156" height="108" rx="6" fill="#F4F2EC" stroke="rgba(26,26,26,0.16)" stroke-width="1"/>
  <rect x="572" y="196" width="32" height="32" rx="4" fill="#EBE8DF"/>
  <use href="#i-secrets" x="576" y="200" width="24" height="24" color="#1A1A1A"/>
  <text x="588" y="252" fill="#1A1A1A" font-size="12" font-weight="600" text-anchor="middle">Secrets Manager</text>
  <text x="588" y="270" class="mono" fill="#7A756C" font-size="10" text-anchor="middle">kickstand/api/prod</text>

  <rect x="688" y="180" width="156" height="108" rx="6" fill="#F4F2EC" stroke="rgba(26,26,26,0.16)" stroke-width="1"/>
  <rect x="750" y="196" width="32" height="32" rx="4" fill="#EBE8DF"/>
  <use href="#i-logs" x="754" y="200" width="24" height="24" color="#1A1A1A"/>
  <text x="766" y="252" fill="#1A1A1A" font-size="12" font-weight="600" text-anchor="middle">CloudWatch Logs</text>
  <text x="766" y="270" class="mono" fill="#7A756C" font-size="10" text-anchor="middle">/ecs/kickstand-api</text>

  <rect x="332" y="320" width="660" height="376" rx="8" fill="rgba(26,26,26,0.02)" stroke="rgba(26,26,26,0.30)" stroke-width="1"/>
  <use href="#i-vpc" x="348" y="332" width="18" height="18" color="#7A756C"/>
  <text x="372" y="346" fill="#1A1A1A" font-size="12" font-weight="600">Default VPC</text>

  <rect x="356" y="372" width="612" height="304" rx="6" fill="none" stroke="rgba(26,26,26,0.40)" stroke-width="1" stroke-dasharray="5,4"/>
  <use href="#i-az" x="372" y="384" width="16" height="16" color="#7A756C"/>
  <text x="394" y="396" fill="#1A1A1A" font-size="11" font-weight="600">Availability Zone</text>
  <text x="510" y="396" class="mono" fill="#7A756C" font-size="10">ap-southeast-1a</text>

  <rect x="380" y="416" width="564" height="240" rx="6" fill="rgba(26,26,26,0.02)" stroke="rgba(26,26,26,0.20)" stroke-width="1"/>
  <use href="#i-subnet" x="396" y="428" width="14" height="14" color="#7A756C"/>
  <text x="416" y="439" fill="#1A1A1A" font-size="11" font-weight="600">Public Subnet</text>
  <text x="510" y="439" class="mono" fill="#7A756C" font-size="10">172.31.16.0/20</text>

  <rect x="528" y="476" width="268" height="160" rx="6" fill="rgba(242,208,107,0.14)" stroke="#F2D06B" stroke-width="1.4"/>
  <rect x="644" y="492" width="36" height="36" rx="4" fill="#F4F2EC"/>
  <use href="#i-server" x="650" y="498" width="24" height="24" color="#9A7A1F"/>
  <text x="662" y="552" fill="#1A1A1A" font-size="14" font-weight="700" text-anchor="middle">Amazon ECS</text>
  <text x="662" y="572" fill="#1A1A1A" font-size="11" font-weight="500" text-anchor="middle">NestJS API</text>
  <text x="662" y="590" class="mono" fill="#7A756C" font-size="10" text-anchor="middle">kickstand-api · 1 task</text>
  <text x="662" y="608" class="mono" fill="#7A756C" font-size="10" text-anchor="middle">EC2 · t3.micro · public ip</text>

  <rect x="40" y="180" width="180" height="108" rx="6" fill="#F4F2EC" stroke="rgba(26,26,26,0.30)" stroke-width="1"/>
  <rect x="114" y="196" width="32" height="32" rx="4" fill="#EBE8DF"/>
  <use href="#i-cicd" x="118" y="200" width="24" height="24" color="#1A1A1A"/>
  <text x="130" y="252" fill="#1A1A1A" font-size="12" font-weight="600" text-anchor="middle">GitHub Actions</text>
  <text x="130" y="270" class="mono" fill="#7A756C" font-size="10" text-anchor="middle">deploy + cron</text>

  <rect x="40" y="496" width="180" height="120" rx="6" fill="rgba(122,117,108,0.10)" stroke="#9A9388" stroke-width="1"/>
  <rect x="114" y="512" width="32" height="32" rx="4" fill="#F4F2EC"/>
  <use href="#i-mobile" x="118" y="516" width="24" height="24" color="#1A1A1A"/>
  <text x="130" y="568" fill="#1A1A1A" font-size="12" font-weight="600" text-anchor="middle">Mobile App</text>
  <text x="130" y="586" class="mono" fill="#7A756C" font-size="10" text-anchor="middle">expo · react native</text>

  <rect x="1100" y="180" width="180" height="108" rx="6" fill="rgba(242,208,107,0.14)" stroke="#F2D06B" stroke-width="1.4"/>
  <rect x="1174" y="196" width="32" height="32" rx="4" fill="#F4F2EC"/>
  <use href="#i-database" x="1178" y="200" width="24" height="24" color="#9A7A1F"/>
  <text x="1190" y="252" fill="#1A1A1A" font-size="13" font-weight="700" text-anchor="middle">Supabase</text>
  <text x="1190" y="270" class="mono" fill="#7A756C" font-size="10" text-anchor="middle">postgres · auth</text>

  <rect x="1100" y="324" width="180" height="232" rx="6" fill="#F4F2EC" stroke="rgba(26,26,26,0.30)" stroke-width="1"/>
  <rect x="1174" y="340" width="32" height="32" rx="4" fill="#EBE8DF"/>
  <use href="#i-globe" x="1178" y="344" width="24" height="24" color="#1A1A1A"/>
  <text x="1190" y="396" fill="#1A1A1A" font-size="12" font-weight="600" text-anchor="middle">Third-party APIs</text>
  <line x1="1116" y1="412" x2="1264" y2="412" stroke="rgba(26,26,26,0.09)" stroke-width="0.8"/>
  <text x="1116" y="432" fill="#1A1A1A" font-size="11" font-weight="500">OpenAI</text>
  <text x="1264" y="432" class="mono" fill="#7A756C" font-size="9" text-anchor="end">ocr</text>
  <text x="1116" y="452" fill="#1A1A1A" font-size="11" font-weight="500">Expo Push</text>
  <text x="1264" y="452" class="mono" fill="#7A756C" font-size="9" text-anchor="end">notifications</text>
  <text x="1116" y="492" fill="#1A1A1A" font-size="11" font-weight="500">Google Places</text>
  <text x="1264" y="492" class="mono" fill="#7A756C" font-size="9" text-anchor="end">workshops</text>
  <text x="1116" y="532" fill="#1A1A1A" font-size="11" font-weight="500">Sentry</text>
  <text x="1264" y="532" class="mono" fill="#7A756C" font-size="9" text-anchor="end">errors · traces</text>

  <line x1="220" y1="234" x2="328" y2="234" stroke="#1A1A1A" stroke-width="1" marker-end="url(#arrow)"/>
  <rect x="248" y="220" width="44" height="14" rx="2" fill="#F4F2EC"/>
  <text x="270" y="230" class="mono" fill="#1A1A1A" font-size="9" text-anchor="middle" letter-spacing="0.06em">PUSH</text>

  <line x1="220" y1="556" x2="528" y2="556" stroke="#C9A442" stroke-width="1.6" marker-end="url(#arrow-accent)"/>
  <rect x="318" y="540" width="112" height="16" rx="2" fill="#F4F2EC"/>
  <text x="374" y="551" class="mono" fill="#9A7A1F" font-size="9" font-weight="500" text-anchor="middle" letter-spacing="0.08em">HTTPS · :3000</text>

  <path d="M 410 288 L 410 300 L 620 300 L 620 476" stroke="#1A1A1A" stroke-width="1" fill="none" marker-end="url(#arrow)"/>
  <rect x="495" y="290" width="40" height="12" rx="2" fill="#F4F2EC"/>
  <text x="515" y="299" class="mono" fill="#1A1A1A" font-size="9" text-anchor="middle" letter-spacing="0.06em">PULL</text>

  <path d="M 588 288 L 588 316 L 700 316 L 700 476" stroke="#1A1A1A" stroke-width="1" fill="none" marker-end="url(#arrow)"/>
  <rect x="624" y="306" width="40" height="12" rx="2" fill="#F4F2EC"/>
  <text x="644" y="315" class="mono" fill="#1A1A1A" font-size="9" text-anchor="middle" letter-spacing="0.06em">ENV</text>

  <path d="M 780 476 L 780 288" stroke="#1A1A1A" stroke-width="1" stroke-dasharray="5,4" fill="none" marker-end="url(#arrow)"/>
  <rect x="788" y="372" width="40" height="14" rx="2" fill="#F4F2EC"/>
  <text x="808" y="382" class="mono" fill="#1A1A1A" font-size="9" text-anchor="middle" letter-spacing="0.06em">LOGS</text>

  <path d="M 796 510 L 1000 510 L 1000 234 L 1100 234" stroke="#1A1A1A" stroke-width="1" fill="none" marker-end="url(#arrow)"/>
  <rect x="872" y="500" width="52" height="12" rx="2" fill="#F4F2EC"/>
  <text x="898" y="509" class="mono" fill="#1A1A1A" font-size="9" text-anchor="middle" letter-spacing="0.06em">PG · JWT</text>

  <path d="M 796 600 L 1040 600 L 1040 440 L 1100 440" stroke="#1A1A1A" stroke-width="1" fill="none" marker-end="url(#arrow)"/>
  <rect x="894" y="590" width="48" height="12" rx="2" fill="#F4F2EC"/>
  <text x="918" y="599" class="mono" fill="#1A1A1A" font-size="9" text-anchor="middle" letter-spacing="0.06em">HTTPS</text>

  <line x1="40" y1="740" x2="1280" y2="740" stroke="rgba(26,26,26,0.09)" stroke-width="0.8"/>
  <text x="40" y="760" class="mono" fill="#7A756C" font-size="9" letter-spacing="0.14em">LEGEND</text>
  <rect x="40" y="776" width="20" height="14" rx="3" fill="rgba(242,208,107,0.14)" stroke="#F2D06B" stroke-width="1"/>
  <text x="68" y="787" class="mono" fill="#7A756C" font-size="10">focal</text>
  <rect x="140" y="776" width="20" height="14" rx="3" fill="rgba(26,26,26,0.015)" stroke="rgba(26,26,26,0.30)" stroke-width="1"/>
  <text x="168" y="787" class="mono" fill="#7A756C" font-size="10">cloud / vpc / subnet</text>
  <rect x="332" y="776" width="20" height="14" rx="3" fill="none" stroke="rgba(26,26,26,0.40)" stroke-width="1" stroke-dasharray="3,2"/>
  <text x="360" y="787" class="mono" fill="#7A756C" font-size="10">region / az</text>
  <line x1="490" y1="784" x2="518" y2="784" stroke="#1A1A1A" stroke-width="1" marker-end="url(#arrow)"/>
  <text x="528" y="787" class="mono" fill="#7A756C" font-size="10">sync flow</text>
  <line x1="640" y1="784" x2="668" y2="784" stroke="#1A1A1A" stroke-width="1" stroke-dasharray="5,4" marker-end="url(#arrow)"/>
  <text x="678" y="787" class="mono" fill="#7A756C" font-size="10">async flow</text>
  <line x1="800" y1="784" x2="828" y2="784" stroke="#C9A442" stroke-width="1.6" marker-end="url(#arrow-accent)"/>
  <text x="838" y="787" class="mono" fill="#7A756C" font-size="10">user request</text>
</svg>
